<svg width="24px" height="23px" viewBox="0 0 24 23" version="1.1" xmlns="http://www.w3.org/2000/svg" xmlns:xlink="http://www.w3.org/1999/xlink">
    <!-- Generator: Sketch 47.1 (45422) - http://www.bohemiancoding.com/sketch -->
    <desc>Created with Sketch.</desc>
    <defs>
        <path d="M17.7062808,6.5254297 C18.0919951,5.4778888 18.1318966,4.57433985 17.712931,3.92637643 C16.9315271,2.71684473 14.7901478,2.78164107 12.3362069,3.89397826 C12.3362069,3.89397826 11.5647783,4.25755774 11.7642857,3.59879493 C12.1400246,2.28486912 12.0834975,1.18693111 11.4982759,0.54976709 C10.1682266,-0.89375141 6.62697044,0.60376404 3.591133,3.89037847 C1.32007389,6.3490396 0,8.9588923 0,11.2159648 C0,15.5285214 5.11071429,18.1527732 10.1083744,18.1527732 C16.6621921,18.1527732 21.0214286,14.0310059 21.0214286,10.7587907 C21.0247537,8.7789025 19.4852217,7.6557659 18.1019704,7.1913921 C17.7628079,7.0797984 17.5300493,7.0078025 17.7062808,6.5254297 Z" id="path-1"></path>
    </defs>
    <g id="Symbols" stroke="none" stroke-width="1" fill="none" fill-rule="evenodd">
        <g id="CN/-Mobile/-Footer" transform="translate(-176.000000, -103.000000)">
            <g id="icon-weibo" transform="translate(176.000000, 102.000000)">
                <rect id="Rectangle" x="0" y="0" width="24" height="24"></rect>
                <g id="Fill-3" transform="translate(0.000000, 5.000000)">
                    <g id="path-1-Clipped">
                        <mask id="mask-2" fill="white">
                            <use xlink:href="#path-1"></use>
                        </mask>
                        <g id="path-1"></g>
                        <path d="M17.7062808,6.5254297 C18.0919951,5.4778888 18.1318966,4.57433985 17.712931,3.92637643 C16.9315271,2.71684473 14.7901478,2.78164107 12.3362069,3.89397826 C12.3362069,3.89397826 11.5647783,4.25755774 11.7642857,3.59879493 C12.1400246,2.28486912 12.0834975,1.18693111 11.4982759,0.54976709 C10.1682266,-0.89375141 6.62697044,0.60376404 3.591133,3.89037847 C1.32007389,6.3490396 0,8.9588923 0,11.2159648 C0,15.5285214 5.11071429,18.1527732 10.1083744,18.1527732 C16.6621921,18.1527732 21.0214286,14.0310059 21.0214286,10.7587907 C21.0247537,8.7789025 19.4852217,7.6557659 18.1019704,7.1913921 C17.7628079,7.0797984 17.5300493,7.0078025 17.7062808,6.5254297 Z" id="path-1" fill="#000000" mask="url(#mask-2)"></path>
                    </g>
                </g>
                <path d="M5.36660236,14.5574325 C4.43282042,16.4909552 5.33707566,18.6393138 7.46299818,19.3403572 C9.67011913,20.0677838 12.2684689,18.952145 13.1727241,16.8678603 C14.0659068,14.8250351 12.9512738,12.7256742 10.7699888,12.1490095 C8.66252043,11.587421 6.28193011,12.6616003 5.36660236,14.5574325 Z" id="Fill-10" fill="#FFFFFF"></path>
                <path d="M7.77636073,17.3361647 C7.0972466,17.0195645 6.89425052,16.2092187 7.3223877,15.5270206 C7.74683403,14.8485916 8.63263508,14.5470676 9.3191309,14.8410535 C10.0130084,15.1463466 10.2344586,15.9491543 9.81370315,16.6539666 C9.38556597,17.3512409 8.46654739,17.656534 7.77636073,17.3361647 Z" id="Fill-10" fill="#000000"></path>
                <g id="Group-2" stroke-linecap="round" stroke-linejoin="round" transform="translate(16.750000, 2.250000)" stroke="#000000" stroke-width="1.5">
                    <path d="M3.5,6.5 C3.5,4.56700338 1.93299662,3 0,3" id="Oval-4"></path>
                    <path d="M6.5,6.5 C6.5,2.91014913 3.58985087,0 0,0" id="Oval-4"></path>
                </g>
            </g>
        </g>
    </g>
</svg>