<svg width="24px" height="20px" viewBox="0 0 24 20" version="1.1" xmlns="http://www.w3.org/2000/svg" xmlns:xlink="http://www.w3.org/1999/xlink">
    <!-- Generator: Sketch 47.1 (45422) - http://www.bohemiancoding.com/sketch -->
    <desc>Created with Sketch.</desc>
    <defs></defs>
    <g id="Symbols" stroke="none" stroke-width="1" fill="none" fill-rule="evenodd">
        <g id="CN/-Mobile/-Footer" transform="translate(-137.000000, -104.000000)" fill-rule="nonzero" fill="#000000">
            <g id="wechat" transform="translate(137.923077, 104.000000)">
                <path d="M20.3846154,16.9230769 C22.0769231,15.8461538 23.0769231,14.1538462 23.0769231,12.3846154 C23.0769231,9.15384615 19.7692308,6.53846154 15.7692308,6.53846154 C11.7692308,6.53846154 8.46153846,9.15384615 8.46153846,12.3846154 C8.46153846,15.6153846 11.5384615,18.0769231 15.6923077,18.0769231 C16.4615385,18.0769231 17.2307692,18 17.9230769,17.7692308 L20.9230769,19.5384615 C21,19.5384615 21.0769231,19.6153846 21.1538462,19.6153846 C21.2307692,19.6153846 21.3076923,19.6153846 21.3846154,19.5384615 C21.5384615,19.3846154 21.5384615,19.2307692 21.4615385,19.0769231 L20.3846154,16.9230769 Z M13.0769231,11.1538462 C12.6153846,11.1538462 12.3076923,10.8461538 12.3076923,10.3846154 C12.3076923,9.92307692 12.6153846,9.61538462 13.0769231,9.61538462 C13.5384615,9.61538462 13.8461538,9.92307692 13.8461538,10.3846154 C13.8461538,10.8461538 13.4615385,11.1538462 13.0769231,11.1538462 Z M18.4615385,11.1538462 C18,11.1538462 17.6923077,10.8461538 17.6923077,10.3846154 C17.6923077,9.92307692 18,9.61538462 18.4615385,9.61538462 C18.9230769,9.61538462 19.2307692,9.92307692 19.2307692,10.3846154 C19.2307692,10.8461538 18.8461538,11.1538462 18.4615385,11.1538462 Z" id="Shape"></path>
                <path d="M16.1538462,5.15384615 C15,2.30769231 11.8461538,0.384615385 8.30769231,0.384615385 C3.76923077,0.384615385 0,3.53846154 0,7.46153846 C0,9.61538462 1.07692308,11.5384615 3,12.9230769 L1.61538462,15.1538462 C1.53846154,15.3076923 1.53846154,15.5384615 1.61538462,15.6153846 C1.69230769,15.6923077 1.76923077,15.7692308 1.92307692,15.7692308 C2,15.7692308 2.07692308,15.7692308 2.07692308,15.6923077 L5.07692308,14 C5.76923077,14.2307692 6.84615385,14.4615385 7.53846154,14.5384615 C7.69230769,14.5384615 7.76923077,14.5384615 7.84615385,14.3846154 C7.92307692,14.3076923 7.92307692,14.1538462 7.92307692,14 C7.76923077,13.4615385 7.61538462,12.8461538 7.61538462,12.3076923 C7.61538462,8.69230769 11.2307692,5.69230769 15.7692308,5.69230769 C15.7692308,5.69230769 15.7692308,5.69230769 15.7692308,5.69230769 C15.7692308,5.69230769 15.7692308,5.69230769 15.7692308,5.69230769 C16,5.69230769 16.1538462,5.53846154 16.1538462,5.30769231 C16.2307692,5.30769231 16.2307692,5.23076923 16.1538462,5.15384615 Z M5,5.76923077 C4.38461538,5.76923077 3.84615385,5.23076923 3.84615385,4.61538462 C3.84615385,4 4.38461538,3.46153846 5,3.46153846 C5.61538462,3.46153846 6.15384615,4 6.15384615,4.61538462 C6.15384615,5.23076923 5.61538462,5.76923077 5,5.76923077 Z M10.3846154,5.76923077 C9.76923077,5.76923077 9.23076923,5.23076923 9.23076923,4.61538462 C9.23076923,4 9.76923077,3.46153846 10.3846154,3.46153846 C11,3.46153846 11.5384615,4 11.5384615,4.61538462 C11.5384615,5.23076923 11,5.76923077 10.3846154,5.76923077 Z" id="Shape"></path>
            </g>
        </g>
    </g>
</svg>