<svg width="22px" height="21px" viewBox="0 0 22 21" version="1.1" xmlns="http://www.w3.org/2000/svg" xmlns:xlink="http://www.w3.org/1999/xlink">
    <!-- Generator: Sketch 47.1 (45422) - http://www.bohemiancoding.com/sketch -->
    <desc>Created with Sketch.</desc>
    <defs></defs>
    <g id="Symbols" stroke="none" stroke-width="1" fill="none" fill-rule="evenodd">
        <g id="EN/-footer-Copy" transform="translate(-1286.000000, -36.000000)" fill-rule="nonzero" fill="#000000">
            <g id="phone-in-talk" transform="translate(1286.076923, 36.000000)">
                <path d="M12.7105263,1.10526316 C16.6717895,1.10526316 19.8947368,4.32821053 19.8947368,8.28947368 C19.8947368,8.59452632 20.1423158,8.84210526 20.4473684,8.84210526 C20.7524211,8.84210526 21,8.59452632 21,8.28947368 C21,3.71810526 17.2818947,0 12.7105263,0 C12.4054737,0 12.1578947,0.247578947 12.1578947,0.552631579 C12.1578947,0.857684211 12.4054737,1.10526316 12.7105263,1.10526316 Z M12.7105263,5.52631579 C14.2346842,5.52631579 15.4736842,6.76642105 15.4736842,8.28947368 C15.4736842,8.59452632 15.7212632,8.84210526 16.0263158,8.84210526 C16.3313684,8.84210526 16.5789474,8.59452632 16.5789474,8.28947368 C16.5789474,6.15631579 14.8436842,4.42105263 12.7105263,4.42105263 C12.4054737,4.42105263 12.1578947,4.66863158 12.1578947,4.97368421 C12.1578947,5.27873684 12.4054737,5.52631579 12.7105263,5.52631579 Z M19.341,13.8257368 C18.0456316,13.8257368 16.7767895,13.6234737 15.5742632,13.2266842 C14.9884737,13.0244211 14.3208947,13.1813684 13.9351579,13.5737368 L11.5511053,15.3742105 C8.81668421,13.9152632 7.06594737,12.1656316 5.62468421,9.44889474 L7.37652632,7.12121053 C7.81752632,6.67910526 7.97557895,6.03473684 7.78657895,5.43015789 C7.38757895,4.221 7.18421053,2.95105263 7.18421053,1.65789474 C7.18421053,0.743842105 6.44036842,0 5.52631579,0 L1.65789474,0 C0.743842105,0 0,0.743842105 0,1.65789474 C0,12.3225789 8.67742105,21 19.3421053,21 C20.2561579,21 21,20.2561579 20.9988947,19.3421053 L20.9988947,15.4836316 C20.9988947,14.5695789 20.2550526,13.8257368 19.341,13.8257368 Z" id="Shape"></path>
            </g>
        </g>
    </g>
</svg>