<?xml version="1.0" standalone="no"?><!DOCTYPE svg PUBLIC "-//W3C//DTD SVG 1.1//EN" "http://www.w3.org/Graphics/SVG/1.1/DTD/svg11.dtd"><svg t="1546915921667" class="icon" style="" viewBox="0 0 1199 1024" version="1.1" xmlns="http://www.w3.org/2000/svg" p-id="23169" xmlns:xlink="http://www.w3.org/1999/xlink" width="234.1796875" height="200"><defs><style type="text/css"></style></defs><path d="M1157.063093 466.306636 41.84374 466.306636c-23.097744 0-41.84374 18.745995-41.84374 41.84374 0 23.097744 18.745995 41.84374 41.84374 41.84374l1115.219353 0c23.097744 0 41.84374-18.745995 41.84374-41.84374C1198.906832 485.052632 1180.160837 466.306636 1157.063093 466.306636L1157.063093 466.306636z" p-id="23170" fill="#ffffff"></path><path d="M434.003269 940.31252l-169.048709 0c-53.727362 0-97.579601-43.852239-97.579601-97.579601l0-161.516836c0-23.097744-18.745995-41.84374-41.84374-41.84374-23.097744 0-41.84374 18.745995-41.84374 41.84374l0 161.516836C83.68748 942.65577 164.864335 1023.832625 264.95456 1023.832625l169.048709 0c23.097744 0 41.84374-18.745995 41.84374-41.84374C475.847009 959.058516 457.101013 940.31252 434.003269 940.31252L434.003269 940.31252z" p-id="23171" fill="#ffffff"></path><path d="M1073.375613 639.372344c-23.097744 0-41.84374 18.745995-41.84374 41.84374l0 161.516836c0 53.727362-43.852239 97.579601-97.579601 97.579601L764.903563 940.31252c-23.097744 0-41.84374 18.745995-41.84374 41.84374s18.745995 41.84374 41.84374 41.84374l169.048709 0c99.922851 0 181.267081-81.34423 181.267081-181.267081l0-161.516836C1115.219353 658.118339 1096.473357 639.372344 1073.375613 639.372344L1073.375613 639.372344z" p-id="23172" fill="#ffffff"></path><path d="M763.229814 83.68748l169.048709 0c53.727362 0 97.579601 43.852239 97.579601 97.579601l0 161.516836c0 23.097744 18.745995 41.84374 41.84374 41.84374 23.097744 0 41.84374-18.745995 41.84374-41.84374L1113.545603 181.267081c0-99.922851-81.34423-181.267081-181.267081-181.267081L763.229814 0c-23.097744 0-41.84374 18.745995-41.84374 41.84374C721.553449 64.941484 740.132069 83.68748 763.229814 83.68748L763.229814 83.68748z" p-id="23173" fill="#ffffff"></path><path d="M123.85747 384.460281c23.097744 0 41.84374-18.745995 41.84374-41.84374L165.70121 181.267081c0-53.727362 43.852239-97.579601 97.579601-97.579601l169.048709 0c23.097744 0 41.84374-18.745995 41.84374-41.84374 0-23.097744-18.745995-41.84374-41.84374-41.84374l-169.048709 0C163.35796 0 82.01373 81.34423 82.01373 181.267081l0 161.516836C82.01373 365.881661 100.759725 384.460281 123.85747 384.460281L123.85747 384.460281z" p-id="23174" fill="#ffffff"></path></svg>